ffmpeg version N-73165-gf1e1730 Copyright (c) 2000-2015 the FFmpeg developers
  built with gcc 4.9.2 (GCC)
  configuration: --enable-gpl --enable-version3 --disable-w32threads --enable-avisynth --enable-bzlib --enable-fontconfig --enable-frei0r --enable-gnutls --enable-iconv --enable-libass --enable-libbluray --enable-libbs2b --enable-libcaca --enable-libdcadec --enable-libfreetype --enable-libgme --enable-libgsm --enable-libilbc --enable-libmodplug --enable-libmp3lame --enable-libopencore-amrnb --enable-libopencore-amrwb --enable-libopenjpeg --enable-libopus --enable-librtmp --enable-libschroedinger --enable-libsoxr --enable-libspeex --enable-libtheora --enable-libtwolame --enable-libvidstab --enable-libvo-aacenc --enable-libvo-amrwbenc --enable-libvorbis --enable-libvpx --enable-libwavpack --enable-libwebp --enable-libx264 --enable-libx265 --enable-libxavs --enable-libxvid --enable-lzma --enable-decklink --enable-zlib
  libavutil      54. 27.100 / 54. 27.100
  libavcodec     56. 45.100 / 56. 45.100
  libavformat    56. 38.102 / 56. 38.102
  libavdevice    56.  4.100 / 56.  4.100
  libavfilter     5. 18.100 /  5. 18.100
  libswscale      3.  1.101 /  3.  1.101
  libswresample   1.  2.100 /  1.  2.100
  libpostproc    53.  3.100 / 53.  3.100
Input #0, rawvideo, from 'pipe:':
  Duration: N/A, start: 0.000000, bitrate: 165888 kb/s
    Stream #0:0: Video: rawvideo (RGB[24] / 0x18424752), rgb24, 640x360, 165888 kb/s, 30 tbr, 30 tbn, 30 tbc
[libx264 @ 000000000039bfe0] using cpu capabilities: MMX2 SSE2Fast SSSE3 SSE4.2 AVX FMA3 AVX2 LZCNT BMI2
[libx264 @ 000000000039bfe0] profile High, level 3.0
[libx264 @ 000000000039bfe0] 264 - core 146 r2538 121396c - H.264/MPEG-4 AVC codec - Copyleft 2003-2015 - http://www.videolan.org/x264.html - options: cabac=1 ref=3 deblock=1:0:0 analyse=0x3:0x113 me=hex subme=7 psy=1 psy_rd=1.00:0.00 mixed_ref=1 me_range=16 chroma_me=1 trellis=1 8x8dct=1 cqm=0 deadzone=21,11 fast_pskip=1 chroma_qp_offset=-2 threads=12 lookahead_threads=2 sliced_threads=0 nr=0 decimate=1 interlaced=0 bluray_compat=0 constrained_intra=0 bframes=3 b_pyramid=2 b_adapt=1 b_bias=0 direct=1 weightb=1 open_gop=0 weightp=2 keyint=250 keyint_min=25 scenecut=40 intra_refresh=0 rc_lookahead=40 rc=crf mbtree=1 crf=15.0 qcomp=0.60 qpmin=0 qpmax=69 qpstep=4 ip_ratio=1.40 aq=1:1.00
Output #0, mp4, to 'C:\Users\Jonghwa\Documents\GitHub\2015RnE\ARDroneForRnE_For_Success\20151005232750.mp4':
  Metadata:
    comment         : Exported using VideoExport for Processing - https://github.com/hamoid/VideoExport-for-Processing
    encoder         : Lavf56.38.102
    Stream #0:0: Video: h264 (libx264) ([33][0][0][0] / 0x0021), yuv420p, 640x360, q=-1--1, 30 fps, 15360 tbn, 30 tbc
    Metadata:
      encoder         : Lavc56.45.100 libx264
Stream mapping:
  Stream #0:0 -> #0:0 (rawvideo (native) -> h264 (libx264))
frame=   18 fps=0.0 q=0.0 size=       0kB time=00:00:00.00 bitrate=N/A    frame=   34 fps= 32 q=0.0 size=       0kB time=00:00:00.00 bitrate=N/A    frame=   49 fps= 31 q=0.0 size=       0kB time=00:00:00.00 bitrate=N/A    frame=   64 fps= 31 q=21.0 size=      97kB time=00:00:00.20 bitrate=3985.3kbits/s    frame=   80 fps= 31 q=21.0 size=     232kB time=00:00:00.73 bitrate=2587.9kbits/s    frame=   95 fps= 31 q=21.0 size=     362kB time=00:00:01.23 bitrate=2407.5kbits/s    frame=  109 fps= 30 q=21.0 size=     480kB time=00:00:01.70 bitrate=2314.1kbits/s    frame=  124 fps= 30 q=21.0 size=     589kB time=00:00:02.20 bitrate=2191.9kbits/s    frame=  140 fps= 30 q=21.0 size=     731kB time=00:00:02.73 bitrate=2189.7kbits/s    frame=  155 fps= 30 q=21.0 size=     846kB time=00:00:03.23 bitrate=2143.2kbits/s    frame=  174 fps= 31 q=21.0 size=    1010kB time=00:00:03.86 bitrate=2139.1kbits/s    frame=  194 fps= 31 q=21.0 size=    1191kB time=00:00:04.53 bitrate=2152.8kbits/s    frame=  212 fps= 32 q=21.0 size=    1325kB time=00:00:05.13 bitrate=2114.3kbits/s    frame=  214 fps= 28 q=21.0 size=    1349kB time=00:00:05.20 bitrate=2125.1kbits/s    frame=  230 fps= 28 q=21.0 size=    1477kB time=00:00:05.73 bitrate=2110.2kbits/s    frame=  236 fps= 26 q=21.0 size=    1502kB time=00:00:05.93 bitrate=2073.5kbits/s    frame=  255 fps= 27 q=21.0 size=    1664kB time=00:00:06.56 bitrate=2075.9kbits/s    frame=  275 fps= 27 q=21.0 size=    1818kB time=00:00:07.23 bitrate=2059.3kbits/s    frame=  292 fps= 28 q=21.0 size=    1977kB time=00:00:07.80 bitrate=2076.8kbits/s    frame=  313 fps= 28 q=21.0 size=    2160kB time=00:00:08.50 bitrate=2082.2kbits/s    frame=  334 fps= 29 q=21.0 size=    2327kB time=00:00:09.20 bitrate=2072.3kbits/s    frame=  340 fps= 27 q=21.0 size=    2366kB time=00:00:09.40 bitrate=2061.6kbits/s    frame=  361 fps= 28 q=21.0 size=    2545kB time=00:00:10.10 bitrate=2064.0kbits/s    frame=  380 fps= 28 q=21.0 size=    2672kB time=00:00:10.73 bitrate=2039.4kbits/s    frame=  399 fps= 29 q=21.0 size=    2838kB time=00:00:11.36 bitrate=2045.2kbits/s    frame=  415 fps= 29 q=21.0 size=    2967kB time=00:00:11.90 bitrate=2042.5kbits/s    frame=  435 fps= 29 q=21.0 size=    3100kB time=00:00:12.56 bitrate=2020.7kbits/s    frame=  446 fps= 19 q=21.0 size=    3188kB time=00:00:12.93 bitrate=2019.6kbits/s    